<!-- Generated by IcoMoon.io -->
<svg version="1.1" xmlns="http://www.w3.org/2000/svg" width="1024" height="1024" viewBox="0 0 1024 1024">
<title>stackoverflow</title>
<g id="icomoon-ignore">
</g>
<path fill="currentColor" opacity="0.56" d="M879.315 491.008l-113-113.050 56.473-113 183.657 183.657c10.847 10.841 17.556 25.822 17.556 42.368s-6.709 31.526-17.556 42.367l-226.052 226.103c-10.843 10.838-25.824 17.542-42.368 17.542-33.102 0-59.936-26.836-59.936-59.936 0-16.558 6.713-31.545 17.566-42.395l183.658-183.658z"></path>
<path fill="currentColor" d="M695.709 222.358c10.841-10.847 25.822-17.556 42.368-17.556s31.526 6.709 42.367 17.556l42.395 42.395-494.497 494.445c-10.841 10.847-25.822 17.556-42.368 17.556s-31.526-6.709-42.367-17.556l-42.395-42.395 494.497-494.445zM483.736 377.751l-84.737 84.789-113.050-113.050-141.314 141.314 113.050 113-56.473 113-183.657-183.657c-10.847-10.841-17.556-25.822-17.556-42.368s6.709-31.526 17.556-42.367l226.052-226.052c10.841-10.847 25.822-17.556 42.368-17.556s31.526 6.709 42.367 17.556l155.445 155.394z"></path>
</svg>
